<svg xmlns="http://www.w3.org/2000/svg" height="48" viewBox="0 -960 960 960" width="48"><path d="M75-550q0-99.012 43.61-185.465Q162.22-821.917 240-877l51 67q-61.954 45.434-96.977 112.807Q159-629.819 159-550H75Zm728 0q0-80-36.21-147.393T670-810l51-67q75.579 55.543 120.79 141.641Q887-649.261 887-550h-84ZM139-179v-91h71v-278q0-91.693 51.5-166.347Q313-789 405-810v-17q0-30.583 21.9-53.292Q448.799-903 479.941-903q31.142 0 53.101 22.708Q555-857.583 555-827v17q91 19 144 94.542Q752-639.915 752-548v278h71v91H139Zm341-319Zm.465 447q-37.415 0-62.44-25.612Q393-102.225 393-139h175q0 37-25.71 62.5Q516.579-51 480.465-51ZM301-270h359v-277.572Q660-622 607.42-675q-52.579-53-127.5-53Q405-728 353-674.881 301-621.763 301-548v278Z"/></svg>